<svg id="coin" xmlns="http://www.w3.org/2000/svg" width="212.754" height="212.754" viewBox="0 0 212.754 212.754">
  <path id="Path_32" data-name="Path 32" d="M106.377,0A106.377,106.377,0,1,0,212.754,106.377,106.5,106.5,0,0,0,106.377,0Zm0,198.755a92.378,92.378,0,1,1,92.377-92.378A92.482,92.482,0,0,1,106.377,198.755Z" fill="#de415b"/>
  <path id="Path_33" data-name="Path 33" d="M113.377,100.1V60.352a20.136,20.136,0,0,1,9.82,7.82,7,7,0,1,0,11.692-7.7,34.073,34.073,0,0,0-21.512-14.647V34.706a7,7,0,0,0-14,0v11.1a34.148,34.148,0,0,0,0,66.854V152.4a20.136,20.136,0,0,1-9.82-7.82,7,7,0,1,0-11.692,7.7,34.073,34.073,0,0,0,21.512,14.647v11.119a7,7,0,0,0,14,0v-11.1a34.148,34.148,0,0,0,0-66.854ZM86.209,79.231A20.16,20.16,0,0,1,99.377,60.357V98.105A20.16,20.16,0,0,1,86.209,79.231ZM113.377,152.4V114.649a20.11,20.11,0,0,1,0,37.748Z" fill="#de415b"/>
</svg>
