<svg id="placeholder" xmlns="http://www.w3.org/2000/svg" width="18.87" height="18.87" viewBox="0 0 18.87 18.87">
  <path id="Path_25" data-name="Path 25" d="M13.246,43a.314.314,0,0,0-.074.625c3.307.389,5.069,1.438,5.069,2.046,0,.854-3.35,2.044-8.806,2.044S.629,46.526.629,45.673c0-.608,1.761-1.657,5.069-2.046A.314.314,0,0,0,5.624,43C2.313,43.392,0,44.49,0,45.673,0,47,3.241,48.346,9.435,48.346S18.87,47,18.87,45.673C18.87,44.49,16.557,43.392,13.246,43Z" transform="translate(0 -29.476)" fill="#de415b"/>
  <path id="Path_26" data-name="Path 26" d="M16.677,17.221,21.5,10.252a6.872,6.872,0,0,0-.56-8.486,6.03,6.03,0,0,0-8.529,0,6.87,6.87,0,0,0-.567,8.476Zm.056-13.447a2.2,2.2,0,1,1-2.2,2.2A2.2,2.2,0,0,1,16.733,3.774Z" transform="translate(-7.298 0)" fill="#de415b"/>
</svg>
