<svg xmlns="http://www.w3.org/2000/svg" width="26.477" height="35.524" viewBox="0 0 26.477 35.524"><defs><style>.a{fill:#577863;}</style></defs><g transform="translate(-48.016)"><g transform="translate(48.016)"><path class="a" d="M75.235,124.629a1.788,1.788,0,0,0,1.786,1.713h16.69a1.788,1.788,0,0,0,1.786-1.713l1.192-25.161H74.043Zm13.907-18.911a.726.726,0,0,1,.726-.726h1.161a.726.726,0,0,1,.726.726v14.375a.726.726,0,0,1-.726.726H89.868a.726.726,0,0,1-.726-.726Zm-5.082,0a.726.726,0,0,1,.726-.726h1.161a.726.726,0,0,1,.726.726v14.375a.726.726,0,0,1-.726.726H84.785a.726.726,0,0,1-.726-.726V105.717Zm-5.082,0a.726.726,0,0,1,.726-.726h1.162a.726.726,0,0,1,.726.726v14.375a.726.726,0,0,1-.726.726H79.7a.726.726,0,0,1-.726-.726Z" transform="translate(-72.127 -90.818)"/><path class="a" d="M77.371,1.83h-7.7V.374A.374.374,0,0,0,69.3,0H61.212a.374.374,0,0,0-.374.374V1.83h-7.7a1.122,1.122,0,0,0-1.122,1.122V6.476H78.493V2.952A1.122,1.122,0,0,0,77.371,1.83Z" transform="translate(-52.016)"/></g></g></svg>